<svg xmlns="http://www.w3.org/2000/svg" viewBox="0 0 16 16" xmlns:xlink="http://www.w3.org/1999/xlink">
<g transform="translate(0 -1036.3622)">
<path style="fill:#d3d3d3" d="m 1.6707985,1036.9834 12.5952685,0 c 0.581481,0 1.049606,0.4621 1.049606,1.0361 l 0,12.4328 c 0,0.574 -0.468125,1.0362 -1.049606,1.0362 l -12.5952685,0 c -0.5814816,0 -1.0496057,-0.4622 -1.0496057,-1.0362 l 0,-12.4328 c 0,-0.574 0.4681241,-1.0361 1.0496057,-1.0361 z"/>
<path style="fill:#aaa" d="M 2 0 C 0.892 0 3.2526065e-18 0.892 0 2 L 0 14 C 0 15.108 0.892 16 2 16 L 14 16 C 15.108 16 16 15.108 16 14 L 16 2 C 16 0.892 15.108 3.2526065e-18 14 0 L 2 0 z M 2 1 L 14 1 C 14.554 1 15 1.446 15 2 L 15 14 C 15 14.554 14.554 15 14 15 L 2 15 C 1.446 15 1 14.554 1 14 L 1 2 C 1 1.446 1.446 1 2 1 z " transform="translate(0 1036.3622)"/>
</g>
</svg>
