<?xml version="1.0" encoding="UTF-8" standalone="no"?>
<!-- Created with Inkscape (http://www.inkscape.org/) -->

<svg
   xmlns:dc="http://purl.org/dc/elements/1.1/"
   xmlns:cc="http://creativecommons.org/ns#"
   xmlns:rdf="http://www.w3.org/1999/02/22-rdf-syntax-ns#"
   xmlns:svg="http://www.w3.org/2000/svg"
   xmlns="http://www.w3.org/2000/svg"
   xmlns:xlink="http://www.w3.org/1999/xlink"
   xmlns:sodipodi="http://sodipodi.sourceforge.net/DTD/sodipodi-0.dtd"
   xmlns:inkscape="http://www.inkscape.org/namespaces/inkscape"
   width="16"
   height="16"
   id="svg2"
   version="1.1"
   inkscape:version="0.48.4 r9939"
   sodipodi:docname="checkbox-mixed-insensitive-dark.svg">
  <defs
     id="defs4">
    <radialGradient
       inkscape:collect="always"
       xlink:href="#linearGradient3802"
       id="radialGradient3810"
       cx="8"
       cy="8"
       fx="7.9579105"
       fy="8.8488083"
       r="7"
       gradientUnits="userSpaceOnUse"
       gradientTransform="matrix(1.2857143,-3.0612245e-8,3.0612246e-8,1.2857143,-2.2857145,-2.2857141)" />
    <linearGradient
       id="linearGradient3802">
      <stop
         style="stop-color:#eeeeec;stop-opacity:1;"
         offset="0"
         id="stop3804" />
      <stop
         id="stop3812"
         offset="0.5"
         style="stop-color:#e4e4e1;stop-opacity:1;" />
      <stop
         style="stop-color:#949493;stop-opacity:1;"
         offset="1"
         id="stop3806" />
    </linearGradient>
    <radialGradient
       r="7"
       fy="8.8488083"
       fx="7.9579105"
       cy="8"
       cx="8"
       gradientTransform="matrix(1.2857143,-3.0612245e-8,3.0612246e-8,1.2857143,-2.2857145,-2.2857141)"
       gradientUnits="userSpaceOnUse"
       id="radialGradient3006"
       xlink:href="#linearGradient3802"
       inkscape:collect="always" />
    <radialGradient
       inkscape:collect="always"
       xlink:href="#linearGradient3802"
       id="radialGradient3784"
       cx="8"
       cy="8"
       fx="8.522295"
       fy="8.6830006"
       r="7"
       gradientUnits="userSpaceOnUse"
       gradientTransform="matrix(1.8571429,-6.3176109e-8,6.3176109e-8,1.8571429,-6.8571438,-6.8571423)" />
  </defs>
  <sodipodi:namedview
     id="base"
     pagecolor="#ffffff"
     bordercolor="#666666"
     borderopacity="1.0"
     inkscape:pageopacity="0.0"
     inkscape:pageshadow="2"
     inkscape:zoom="15.839192"
     inkscape:cx="12.610752"
     inkscape:cy="6.1944703"
     inkscape:document-units="px"
     inkscape:current-layer="layer1"
     showgrid="true"
     inkscape:window-width="1366"
     inkscape:window-height="717"
     inkscape:window-x="0"
     inkscape:window-y="26"
     inkscape:window-maximized="1">
    <inkscape:grid
       type="xygrid"
       id="grid3006"
       empspacing="5"
       visible="true"
       enabled="true"
       snapvisiblegridlinesonly="true" />
  </sodipodi:namedview>
  <metadata
     id="metadata7">
    <rdf:RDF>
      <cc:Work
         rdf:about="">
        <dc:format>image/svg+xml</dc:format>
        <dc:type
           rdf:resource="http://purl.org/dc/dcmitype/StillImage" />
        <dc:title />
      </cc:Work>
    </rdf:RDF>
  </metadata>
  <g
     inkscape:label="Ebene 1"
     inkscape:groupmode="layer"
     id="layer1"
     transform="translate(0,-1036.3622)">
    <path
       inkscape:connector-curvature="0"
       style="fill:#2a2a2a;fill-opacity:1;stroke:none"
       d="m 1.7429523,1036.9203 12.7034987,0 c 0.586479,0 1.058625,0.468 1.058625,1.0495 l 0,12.5953 c 0,0.5815 -0.472146,1.0496 -1.058625,1.0496 l -12.7034987,0 c -0.5864782,0 -1.05862497,-0.4681 -1.05862497,-1.0496 l 0,-12.5953 c 0,-0.5815 0.47214677,-1.0495 1.05862497,-1.0495 z"
       id="rect3752-5"
       sodipodi:nodetypes="sssssssss" />
    <path
       style="fill:#211f1e;fill-opacity:1;stroke:none"
       d="M 2 0 C 0.892 0 3.2526065e-18 0.892 0 2 L 0 14 C 0 15.108 0.892 16 2 16 L 14 16 C 15.108 16 16 15.108 16 14 L 16 2 C 16 0.892 15.108 3.2526065e-18 14 0 L 2 0 z M 2 1 L 14 1 C 14.554 1 15 1.446 15 2 L 15 14 C 15 14.554 14.554 15 14 15 L 2 15 C 1.446 15 1 14.554 1 14 L 1 2 C 1 1.446 1.446 1 2 1 z "
       transform="translate(0,1036.3622)"
       id="rect3752" />
    <rect
       style="fill:#211f1e;fill-opacity:1;stroke:none"
       id="rect3931"
       width="8"
       height="2"
       x="4"
       y="1043.3622" />
  </g>
</svg>
