<?xml version="1.0" encoding="UTF-8" standalone="no"?>
<!-- Created with Inkscape (http://www.inkscape.org/) -->

<svg
   xmlns:dc="http://purl.org/dc/elements/1.1/"
   xmlns:cc="http://creativecommons.org/ns#"
   xmlns:rdf="http://www.w3.org/1999/02/22-rdf-syntax-ns#"
   xmlns:svg="http://www.w3.org/2000/svg"
   xmlns="http://www.w3.org/2000/svg"
   xmlns:xlink="http://www.w3.org/1999/xlink"
   xmlns:sodipodi="http://sodipodi.sourceforge.net/DTD/sodipodi-0.dtd"
   xmlns:inkscape="http://www.inkscape.org/namespaces/inkscape"
   width="40"
   height="40"
   id="svg2"
   version="1.1"
   inkscape:version="0.48.4 r9939"
   sodipodi:docname="grid-selection-checked-dark.svg">
  <defs
     id="defs4">
    <radialGradient
       inkscape:collect="always"
       xlink:href="#linearGradient3802"
       id="radialGradient3810"
       cx="8"
       cy="8"
       fx="7.9579105"
       fy="8.8488083"
       r="7"
       gradientUnits="userSpaceOnUse"
       gradientTransform="matrix(1.2857143,-3.0612245e-8,3.0612246e-8,1.2857143,-2.2857145,-2.2857141)" />
    <linearGradient
       id="linearGradient3802">
      <stop
         style="stop-color:#eeeeec;stop-opacity:1;"
         offset="0"
         id="stop3804" />
      <stop
         id="stop3812"
         offset="0.5"
         style="stop-color:#e4e4e1;stop-opacity:1;" />
      <stop
         style="stop-color:#949493;stop-opacity:1;"
         offset="1"
         id="stop3806" />
    </linearGradient>
    <radialGradient
       r="7"
       fy="8.8488083"
       fx="7.9579105"
       cy="8"
       cx="8"
       gradientTransform="matrix(1.2857143,-3.0612245e-8,3.0612246e-8,1.2857143,-2.2857145,-2.2857141)"
       gradientUnits="userSpaceOnUse"
       id="radialGradient3006"
       xlink:href="#linearGradient3802"
       inkscape:collect="always" />
  </defs>
  <sodipodi:namedview
     id="base"
     pagecolor="#ffffff"
     bordercolor="#666666"
     borderopacity="1.0"
     inkscape:pageopacity="0.0"
     inkscape:pageshadow="2"
     inkscape:zoom="11.2"
     inkscape:cx="-14.641856"
     inkscape:cy="19.731402"
     inkscape:document-units="px"
     inkscape:current-layer="layer1"
     showgrid="true"
     inkscape:window-width="935"
     inkscape:window-height="732"
     inkscape:window-x="269"
     inkscape:window-y="139"
     inkscape:window-maximized="0">
    <inkscape:grid
       type="xygrid"
       id="grid3006"
       empspacing="5"
       visible="true"
       enabled="true"
       snapvisiblegridlinesonly="true" />
  </sodipodi:namedview>
  <metadata
     id="metadata7">
    <rdf:RDF>
      <cc:Work
         rdf:about="">
        <dc:format>image/svg+xml</dc:format>
        <dc:type
           rdf:resource="http://purl.org/dc/dcmitype/StillImage" />
        <dc:title />
      </cc:Work>
    </rdf:RDF>
  </metadata>
  <g
     inkscape:label="Ebene 1"
     inkscape:groupmode="layer"
     id="layer1"
     transform="translate(0,-1012.3622)">
    <rect
       style="fill:#494949;fill-opacity:1;stroke:none"
       id="rect3757"
       width="37.05357"
       height="37.05357"
       x="1.4285715"
       y="1013.7908"
       rx="1"
       ry="1" />
    <path
       style="fill:#211f1e;fill-opacity:1;stroke:none"
       d="m 5,1012.3622 c -2.77,0 -5,2.23 -5,5 l 0,30 c 0,2.77 2.23,5 5,5 l 30,0 c 2.77,0 5,-2.23 5,-5 l 0,-30 c 0,-2.77 -2.23,-5 -5,-5 z m 0,2.0536 30,0 c 1.385,0 3.035714,1.5614 3.035714,2.9464 l 0,30 c 0,1.385 -1.650714,3.0357 -3.035714,3.0357 l -30,0 c -1.385,0 -2.9464286,-1.6507 -2.9464286,-3.0357 l 0,-30 c 0,-1.385 1.5614286,-2.9464 2.9464286,-2.9464 z"
       id="rect3752"
       inkscape:connector-curvature="0"
       sodipodi:nodetypes="ssssssssssssssssss" />
    <path
       style="font-size:medium;font-style:normal;font-variant:normal;font-weight:normal;font-stretch:normal;text-indent:0;text-align:start;text-decoration:none;line-height:normal;letter-spacing:normal;word-spacing:normal;text-transform:none;direction:ltr;block-progression:tb;writing-mode:lr-tb;text-anchor:start;baseline-shift:baseline;color:#000000;fill:#808080;fill-opacity:1;stroke:none;stroke-width:2.90000010000000019;marker:none;visibility:visible;display:inline;overflow:visible;enable-background:accumulate;font-family:Sans;-inkscape-font-specification:Sans"
       d="m 29.13352,1022.158 c -0.914683,0.025 -1.818308,0.4057 -2.463877,1.0665 l -10.073226,9.5917 -3.455547,-3.8722 c -1.229737,-1.64 -3.926399,-1.8163 -5.3516312,-0.35 -1.4252323,1.4662 -1.2275153,4.2135 0.3923797,5.452 l 5.9579565,6.3997 c 2.342312,2.3423 3.397624,2.029 5.762435,-0.3357 0,0 8.126148,-9.7758 12.889022,-13.08 1.052818,-0.998 1.492196,-1.2755 0.94419,-2.6305 -0.548004,-1.355 -3.164817,-2.29 -4.601702,-2.2415 z"
       id="path5174"
       inkscape:connector-curvature="0"
       sodipodi:nodetypes="ccccsccccsc" />
  </g>
</svg>
