/* XPM */
static char *close_focused_prelight_png[] = {
/* columns rows colors chars-per-pixel */
"20 18 32 1 ",
"  c #A21F2C",
". c #D62735",
"X c #D52835",
"o c #D52836",
"O c #D72836",
"+ c #DB313C",
"@ c #DC313D",
"# c #DC323D",
"$ c #DD323E",
"% c #DF3540",
"& c #DF3541",
"* c #DF3641",
"= c #D53E47",
"- c #D63F48",
"; c #E03541",
": c #E03741",
"> c #E03742",
", c #E13742",
"< c #E43B46",
"1 c #E53C47",
"2 c #E53D47",
"3 c #D84048",
"4 c #DB424A",
"5 c #DC424B",
"6 c #DD434B",
"7 c #E64950",
"8 c #E74950",
"9 c #EE4A51",
"0 c #EE4A52",
"q c #EF4B52",
"w c #F25056",
"e c None",
/* pixels */
"eeeeeeeeeeeeeeeeeeee",
"eeeeeeeeeeeeeeeeeeee",
"eeeeeeX$>>$oeeeeeeee",
"eeeee:qwwwwq*eeeeeee",
"eeee2wwwwwwww1eeeeee",
"eee:w75wwww48w;eeeee",
"eeXqw5 -ww= 6w0.eeee",
"ee$www- -= 3www#eeee",
"ee,wwww-  3wwww:eeee",
"ee>wwww=  -wwww:eeee",
"ee$www= 3- -www@eeee",
"eeOqw4 3ww- 6w9oeeee",
"eee*w86wwww68w%eeeee",
"eeee1wwwwwwww<eeeeee",
"eeeee&0wwww9%eeeeeee",
"eeeeee.+::@oeeeeeeee",
"eeeeeeeeeeeeeeeeeeee",
"eeeeeeeeeeeeeeeeeeee"
};
