/* XPM */
static char *close_png[] = {
/* columns rows colors chars-per-pixel */
"20 18 18 1 ",
"  c #D52835",
". c #DB303C",
"X c #DC313C",
"o c #DC303D",
"O c #DC313D",
"+ c #DE3440",
"@ c #DF3540",
"# c #DF3541",
"$ c #DF3640",
"% c #DF3641",
"& c #E03641",
"* c #E03642",
"= c #E33B45",
"- c #E43B45",
"; c #EE4951",
": c #EE4A51",
"> c #F25056",
", c None",
/* pixels */
",,,,,,,,,,,,,,,,,,,,",
",,,,,,,,,,,,,,,,,,,,",
",,,,,,,X&%o,,,,,,,,,",
",,,,,$:>>>>;+,,,,,,,",
",,,,->>>>>>>>=,,,,,,",
",,,@>>>>>>>>>>@,,,,,",
",, :>>>>>>>>>>;,,,,,",
",,O>>>>>>>>>>>>.,,,,",
",,*>>>>>>>>>>>>&,,,,",
",,*>>>>>>>>>>>>&,,,,",
",,O>>>>>>>>>>>>.,,,,",
",, :>>>>>>>>>>;,,,,,",
",,,#>>>>>>>>>>+,,,,,",
",,,,->>>>>>>>=,,,,,,",
",,,,,$:>>>>;+,,,,,,,",
",,,,,,,X&%o,,,,,,,,,",
",,,,,,,,,,,,,,,,,,,,",
",,,,,,,,,,,,,,,,,,,,"
};
