/* XPM */
static char *close_focused_pressed_png[] = {
/* columns rows colors chars-per-pixel */
"20 18 17 1 ",
"  c #A11D2B",
". c #C32331",
"X c #C42432",
"o c #C72432",
"O c #C82432",
"+ c #C92432",
"@ c #CE2533",
"# c #CE2634",
"$ c #CF2634",
"% c #D42635",
"& c #D52735",
"* c #D62735",
"= c #D52736",
"- c #D52834",
"; c #D52835",
": c #D52836",
"> c None",
/* pixels */
">>>>>>>>>>>>>>>>>>>>",
">>>>>>>>>>>>>>>>>>>>",
">>>>>>>&%=&>>>>>>>>>",
">>>>>&******&>>>>>>>",
">>>>&********&>>>>>>",
">>>%*@O****o$*&>>>>>",
">>:**o X**. O**>>>>>",
">>&***. X. X***->>>>",
">>*****.  X****&>>>>",
">>*****.  X****&>>>>",
">>&***. X. X***:>>>>",
">>;**o X**. +**>>>>>",
">>>&*#O****O$*&>>>>>",
">>>>&********&>>>>>>",
">>>>>=*******>>>>>>>",
">>>>>>:*&&&>>>>>>>>>",
">>>>>>>>>>>>>>>>>>>>",
">>>>>>>>>>>>>>>>>>>>"
};
