/* XPM */
static char *minimize_focused_prelight_png[] = {
/* columns rows colors chars-per-pixel */
"20 18 32 1 ",
"  c #DA9D10",
". c #D99E10",
"X c #DA9F10",
"o c #DA9E11",
"O c #DB9E11",
"+ c #DB9F11",
"@ c #DBA011",
"# c #DCA012",
"$ c #E1A719",
"% c #E3A719",
"& c #E2A71A",
"* c #E2A819",
"= c #E2A81A",
"- c #E3A81A",
"; c #E4AB1D",
": c #E5AB1E",
"> c #E6AB1E",
", c #E6AC1E",
"< c #E6AD1E",
"1 c #E7AD1E",
"2 c #E6AD1F",
"3 c #C08522",
"4 c #C28723",
"5 c #DBA32B",
"6 c #DCA42B",
"7 c #DCA52C",
"8 c #DDA52C",
"9 c #EBB223",
"0 c #EBB324",
"q c #F6C031",
"w c #FAC536",
"e c None",
/* pixels */
"eeeeeeeeeeeeeeeeeeee",
"eeeeeeeeeeeeeeeeeeee",
"eeeeee@*22*Oeeeeeeee",
"eeeee<qwwwwq,eeeeeee",
"eeee0wwwwwwww0eeeeee",
"eee,wwwwwwwwww,eeeee",
"ee+qwwwwwwwwwwqoeeee",
"ee=wwwwwwwwwwww-eeee",
"ee<w5333333336w1eeee",
"ee1w7444444448w,eeee",
"ee&wwwwwwwwwwww-eeee",
"ee#qwwwwwwwwwwqXeeee",
"eee:wwwwwwwwww>eeeee",
"eeee9wwwwwwww9eeeeee",
"eeeee,qwwwwq;eeeeeee",
"eeeeee %,,$.eeeeeeee",
"eeeeeeeeeeeeeeeeeeee",
"eeeeeeeeeeeeeeeeeeee"
};
