/* XPM */
static char *minimize_png[] = {
/* columns rows colors chars-per-pixel */
"20 18 16 1 ",
"  c #E1A719",
". c #E2A719",
"X c #E2A819",
"o c #E4AB1C",
"O c #E5AB1C",
"+ c #E4AB1D",
"@ c #E5AB1D",
"# c #E5AC1E",
"$ c #E5AD1E",
"% c #E6AC1E",
"& c #E6AD1E",
"* c #EAB123",
"= c #F6C030",
"- c #FAC536",
"; c #FAC636",
": c None",
/* pixels */
"::::::::::::::::::::",
"::::::::::::::::::::",
"::::::: $#X:::::::::",
":::::+=;;;;=o:::::::",
"::::*-;;;;;;-*::::::",
":::@-;;;;;;;;-@:::::",
":::=;;;;;;;;;;=:::::",
"::.;;;;;;;;;;;; ::::",
"::%;;;;;;;;;;;;&::::",
"::%;;;;;;;;;;;;&::::",
"::.;;;;;;;;;;;; ::::",
":::=;;;;;;;;;;=:::::",
":::O-;;;;;;;;-o:::::",
"::::*-;;;;;;-*::::::",
":::::+=;;;;=o:::::::",
"::::::: $#X:::::::::",
"::::::::::::::::::::",
"::::::::::::::::::::"
};
