/* XPM */
static char *minimize_focused_pressed_png[] = {
/* columns rows colors chars-per-pixel */
"20 18 9 1 ",
"  c #C18722",
". c #DDA52C",
"X c #DDA62C",
"o c #DEA62C",
"O c #FAC436",
"+ c #FAC536",
"@ c #FBC536",
"# c #FAC636",
"$ c None",
/* pixels */
"$$$$$$$$$$$$$$$$$$$$",
"$$$$$$$$$$$$$$$$$$$$",
"$$$$$$$+O@+$$$$$$$$$",
"$$$$$@######+$$$$$$$",
"$$$$+########+$$$$$$",
"$$$+##########+$$$$$",
"$$$############$$$$$",
"$$+############+$$$$",
"$$+#X        o#@$$$$",
"$$+#.        X#@$$$$",
"$$+############+$$$$",
"$$$############$$$$$",
"$$$+##########+$$$$$",
"$$$$+########+$$$$$$",
"$$$$$+######+$$$$$$$",
"$$$$$$$++@+$$$$$$$$$",
"$$$$$$$$$$$$$$$$$$$$",
"$$$$$$$$$$$$$$$$$$$$"
};
