/* XPM */
static char *maximize_png[] = {
/* columns rows colors chars-per-pixel */
"20 18 17 1 ",
"  c #14C21E",
". c #1CC928",
"X c #1CCA28",
"o c #1DCB28",
"O c #1FCE2B",
"+ c #1FCF2C",
"@ c #20CF2C",
"# c #20CF2D",
"$ c #20D12D",
"% c #21D02E",
"& c #21D02F",
"* c #26D533",
"= c #26D534",
"- c #33E442",
"; c #33E543",
": c #39EA49",
"> c None",
/* pixels */
">>>>>>>>>>>>>>>>>>>>",
">>>>>>>>>>>>>>>>>>>>",
">>>>>>>X%%X>>>>>>>>>",
">>>>>+-::::-+>>>>>>>",
">>>>*::::::::=>>>>>>",
">>>+::::::::::#>>>>>",
">>>-::::::::::; >>>>",
">>.::::::::::::o>>>>",
">>$::::::::::::&>>>>",
">>$::::::::::::&>>>>",
">>.::::::::::::o>>>>",
">>>-::::::::::; >>>>",
">>>O::::::::::@>>>>>",
">>>>*::::::::=>>>>>>",
">>>>>+-::::-+>>>>>>>",
">>>>>>>X%%X>>>>>>>>>",
">>>>>>>>>>>>>>>>>>>>",
">>>>>>>>>>>>>>>>>>>>"
};
