/* XPM */
static char *maximize_focused_pressed_png[] = {
/* columns rows colors chars-per-pixel */
"20 18 23 1 ",
"  c #0B7407",
". c #0D850C",
"X c #0D870C",
"o c #0E9611",
"O c #0F9811",
"+ c #0F9812",
"@ c #0F9912",
"# c #0F9A12",
"$ c #0F9B12",
"% c #10A716",
"& c #10A816",
"* c #10A917",
"= c #12BA1C",
"- c #12BD1C",
"; c #13BE1D",
": c #13C11D",
"> c #13C01E",
", c #13C11E",
"< c #13C11F",
"1 c #13C21E",
"2 c #14C01E",
"3 c #14C11E",
"4 c None",
/* pixels */
"44444444444444444444",
"44444444444444444444",
"4444444,,,,444444444",
"44444,111111,4444444",
"4444,11111111,444444",
"444,111&ooo+=1,44444",
"4441111;X   $1134444",
"44:11*-1;X  @11,4444",
"44,11@.-1;X @1114444",
"44,11@ .-1;X@1114444",
"44<11@  .-1;*11,4444",
"44411$   .-111124444",
"44431=#OOO%111144444",
"4444111111111,444444",
"44444,111111,4444444",
"4444444,,>,344444444",
"44444444444444444444",
"44444444444444444444"
};
