/* XPM */
static char *minimize_unfocused_png[] = {
/* columns rows colors chars-per-pixel */
"20 18 10 1 ",
"  c #B4B4B4",
". c gray72",
"X c #B9B9B9",
"o c gray73",
"O c #BBBBBB",
"+ c gray",
"@ c #C5C5C5",
"# c gray78",
"$ c #C8C8C8",
"% c None",
/* pixels */
"%%%%%%%%%%%%%%%%%%%%",
"%%%%%%%%%%%%%%%%%%%%",
"%%%%%%%XOO.%%%%%%%%%",
"%%%%%o@$$$$@O%%%%%%%",
"%%%%+$$$$$$$#+%%%%%%",
"%%%O$$$$$$$$$$O%%%%%",
"%% @$$$$$$$$$$@%%%%%",
"%%.$$$$$$$$$$$$.%%%%",
"%%O$$$$$$$$$$$$O%%%%",
"%%O$$$$$$$$$$$$O%%%%",
"%%.$$$$$$$$$$$$.%%%%",
"%% @$$$$$$$$$$@%%%%%",
"%%%o$$$$$$$$$#o%%%%%",
"%%%%+$$$$$$$#+%%%%%%",
"%%%%%o@$$$$@O%%%%%%%",
"%%%%%%%XOO.%%%%%%%%%",
"%%%%%%%%%%%%%%%%%%%%",
"%%%%%%%%%%%%%%%%%%%%"
};
