/* XPM */
static char *maximize_focused_prelight_png[] = {
/* columns rows colors chars-per-pixel */
"20 18 41 1 ",
"  c #0B7407",
". c #148C14",
"X c #169117",
"o c #1FA723",
"O c #20A924",
"+ c #20A925",
"@ c #20AA25",
"# c #21AC26",
"$ c #22AF28",
"% c #13C31E",
"& c #13C21F",
"* c #14C11E",
"= c #14C21F",
"- c #1DCB28",
"; c #1CCA29",
": c #1CCB29",
"> c #1DCC29",
", c #20CF2D",
"< c #21CF2D",
"1 c #21D02D",
"2 c #21D02E",
"3 c #21D12E",
"4 c #22D02E",
"5 c #22D12E",
"6 c #22D22E",
"7 c #29C132",
"8 c #29C233",
"9 c #2AC433",
"0 c #2BC534",
"q c #26D633",
"w c #27D734",
"e c #27D735",
"r c #34DD42",
"t c #35DF43",
"y c #34E443",
"u c #34E543",
"i c #36E345",
"p c #34E544",
"a c #37E546",
"s c #39EA49",
"d c None",
/* pixels */
"dddddddddddddddddddd",
"dddddddddddddddddddd",
"dddddd&>56>%dddddddd",
"ddddd1pssssp2ddddddd",
"ddddwssssssssedddddd",
"ddd2sss8ooo+rs2ddddd",
"dd=usssaX   #sp%dddd",
"dd:ss9isaX  @ss>dddd",
"dd4ss#.isaX @ss6dddd",
"dd3ss# .isaX@ss5dddd",
"dd-ss#  .isa0ss>dddd",
"dd*ys$   .isssp&dddd",
"ddd,st#OOO7sss1ddddd",
"ddddqsssssssswdddddd",
"ddddd,yssssu<ddddddd",
"dddddd*-44;=dddddddd",
"dddddddddddddddddddd",
"dddddddddddddddddddd"
};
