<?xml version="1.0" encoding="UTF-8" standalone="no"?>
<!-- Created with Inkscape (http://www.inkscape.org/) -->
<svg id="svg4770" xmlns:rdf="http://www.w3.org/1999/02/22-rdf-syntax-ns#" xmlns="http://www.w3.org/2000/svg" height="19" viewBox="0 0 19 19" width="19" version="1.1" xmlns:cc="http://creativecommons.org/ns#" xmlns:xlink="http://www.w3.org/1999/xlink" xmlns:dc="http://purl.org/dc/elements/1.1/">
 <defs id="defs4772">
  <linearGradient id="linearGradient4672" y2="967.36" gradientUnits="userSpaceOnUse" x2="6" gradientTransform="matrix(1.0833 0 0 1.0833 966.86 -1057.5)" y1="967.36" x1="-6">
   <stop id="stop4668" style="stop-color:#191919;stop-opacity:.6" offset="0"/>
   <stop id="stop4700" style="stop-color:#181818;stop-opacity:0" offset=".5"/>
   <stop id="stop4670" style="stop-color:#fff;stop-opacity:.24314" offset="1"/>
  </linearGradient>
 </defs>
 <metadata id="metadata4775">
  <rdf:RDF>
   <cc:Work rdf:about="">
    <dc:format>image/svg+xml</dc:format>
    <dc:type rdf:resource="http://purl.org/dc/dcmitype/StillImage"/>
    <dc:title/>
   </cc:Work>
  </rdf:RDF>
 </metadata>
 <g id="layer1" transform="translate(287.36 -522.86)">
  <g id="g4722" transform="translate(-287.36 -434.5)">
   <circle id="circle4664" style="color:#000000;fill:url(#linearGradient4672)" d="m 973.36224,-9.5000038 a 6.5,6.5 0 0 1 -6.5,6.5 6.5,6.5 0 0 1 -6.5,-6.5 6.5,6.5 0 0 1 6.5,-6.5000002 6.5,6.5 0 0 1 6.5,6.5000002 z" cx="966.86" transform="rotate(90)" cy="-9.5" r="6.5"/>
   <circle id="circle5388" style="opacity:.2;color:#000000" d="m 12.999998,967.86218 a 3.4999948,3.4999948 0 0 1 -3.4999951,3.5 3.4999948,3.4999948 0 0 1 -3.4999948,-3.5 3.4999948,3.4999948 0 0 1 3.4999948,-3.49999 3.4999948,3.4999948 0 0 1 3.4999951,3.49999 z" cx="9.5" cy="967.86" r="3.5"/>
   <circle id="path4662" style="color:#000000;fill:#c2bdb6" d="m 12.500003,966.86218 a 3,3 0 0 1 -3.0000001,3 3,3 0 0 1 -3,-3 3,3 0 0 1 3,-3 3,3 0 0 1 3.0000001,3 z" cy="966.86" cx="9.5" r="3"/>
   <path id="circle4682" d="m9.5 960.36a6.5 6.5 0 0 0 -6.5 6.5 6.5 6.5 0 0 0 0.023438 0.5293 6.5 6.5 0 0 1 6.4766 -6.0293 6.5 6.5 0 0 1 6.4766 5.9707 6.5 6.5 0 0 0 0.02344 -0.4707 6.5 6.5 0 0 0 -6.5 -6.5z" style="opacity:.1;color:#000000"/>
   <path id="circle4691" d="m15.977 966.33a6.5 6.5 0 0 1 -6.4766 6.0293 6.5 6.5 0 0 1 -6.4766 -5.9707 6.5 6.5 0 0 0 -0.023438 0.4707 6.5 6.5 0 0 0 6.5 6.5 6.5 6.5 0 0 0 6.5 -6.5 6.5 6.5 0 0 0 -0.02344 -0.5293z" style="opacity:0.07;color:#000000;fill:#fff"/>
   <path id="circle4702" d="m15.99 966.56a6.5 6.5 0 0 1 -6.4902 6.3008 6.5 6.5 0 0 1 -6.4902 -6.1992 6.5 6.5 0 0 0 -0.00977 0.19922 6.5 6.5 0 0 0 6.5 6.5 6.5 6.5 0 0 0 6.5 -6.5 6.5 6.5 0 0 0 -0.0098 -0.30078z" style="opacity:0.07;color:#000000;fill:#fff"/>
   <path id="circle4711" d="m9.5 960.36a6.5 6.5 0 0 0 -6.5 6.5 6.5 6.5 0 0 0 0.00977 0.30078 6.5 6.5 0 0 1 6.4902 -6.3008 6.5 6.5 0 0 1 6.4902 6.1992 6.5 6.5 0 0 0 0.0098 -0.19922 6.5 6.5 0 0 0 -6.5 -6.5z" style="opacity:.1;color:#000000"/>
   <rect id="rect4720" style="opacity:.1;color:#000000;fill:none" height="19" width="19" y="957.36" x="-.000002"/>
   <path id="circle4638" style="color-rendering:auto;block-progression:tb;isolation:auto;mix-blend-mode:normal;shape-rendering:auto;color:#000000;image-rendering:auto;text-indent:0;text-transform:none;fill:#cecac5" d="m9.5 963.36c-1.9271 0-3.5 1.5729-3.5 3.5s1.5729 3.5 3.5 3.5 3.5-1.5729 3.5-3.5-1.5729-3.5-3.5-3.5zm0 1c1.3866 0 2.5 1.1134 2.5 2.5s-1.1134 2.5-2.5 2.5-2.5-1.1134-2.5-2.5 1.1134-2.5 2.5-2.5z"/>
  </g>
 </g>
</svg>
